<svg width="39" height="39" viewBox="0 0 78 78" fill="none" xmlns="http://www.w3.org/2000/svg">
<g clip-path="url(#clip0_7292_2799)">
<g filter="url(#filter0_d_7292_2799)">
<circle cx="39" cy="39" r="33" fill="white"/>
</g>
<path fill-rule="evenodd" clip-rule="evenodd" d="M39.1622 26.5834C39.1622 26.3766 38.9945 26.209 38.7878 26.209C38.581 26.209 38.4133 26.3766 38.4133 26.5834V38.3875H26.6093C26.4025 38.3875 26.2349 38.5551 26.2349 38.7619C26.2349 38.9687 26.4025 39.1363 26.6093 39.1363H38.4133V50.9403C38.4133 51.1471 38.581 51.3148 38.7878 51.3148C38.9945 51.3148 39.1622 51.1471 39.1622 50.9403V39.1363H50.9662C51.173 39.1363 51.3406 38.9687 51.3406 38.7619C51.3406 38.5551 51.173 38.3875 50.9662 38.3875H39.1622V26.5834Z" fill="black"/>
</g>
<defs>
<filter id="filter0_d_7292_2799" x="-2" y="-2" width="82" height="82" filterUnits="userSpaceOnUse" color-interpolation-filters="sRGB">
<feFlood flood-opacity="0" result="BackgroundImageFix"/>
<feColorMatrix in="SourceAlpha" type="matrix" values="0 0 0 0 0 0 0 0 0 0 0 0 0 0 0 0 0 0 127 0" result="hardAlpha"/>
<feOffset/>
<feGaussianBlur stdDeviation="4"/>
<feComposite in2="hardAlpha" operator="out"/>
<feColorMatrix type="matrix" values="0 0 0 0 0 0 0 0 0 0 0 0 0 0 0 0 0 0 0.25 0"/>
<feBlend mode="normal" in2="BackgroundImageFix" result="effect1_dropShadow_7292_2799"/>
<feBlend mode="normal" in="SourceGraphic" in2="effect1_dropShadow_7292_2799" result="shape"/>
</filter>
<clipPath id="clip0_7292_2799">
<rect width="78" height="78" fill="white"/>
</clipPath>
</defs>
</svg>
